<svg width="129" height="27" viewBox="0 0 129 27" fill="none" xmlns="http://www.w3.org/2000/svg">
<path d="M12.2031 11.2812C12.1823 11.0052 12.125 10.763 12.0312 10.5547C11.9375 10.3411 11.8047 10.1615 11.6328 10.0156C11.4609 9.86458 11.2474 9.7526 10.9922 9.67969C10.7422 9.60156 10.4479 9.5625 10.1094 9.5625C9.38021 9.5625 8.71615 9.73698 8.11719 10.0859C7.51823 10.4349 7.01563 10.9375 6.60938 11.5937C6.20833 12.25 5.93229 13.0417 5.78125 13.9687C5.625 14.9062 5.61198 15.7083 5.74219 16.375C5.8724 17.0417 6.15365 17.5521 6.58594 17.9062C7.02344 18.2604 7.61458 18.4375 8.35938 18.4375C9.02604 18.4375 9.60156 18.3411 10.0859 18.1484C10.5703 17.9557 10.9583 17.6823 11.25 17.3281C11.5417 16.974 11.724 16.5573 11.7969 16.0781L12.5469 16.1562H8.89063L9.39063 13.0625H16.4844L16.125 15.2812C15.8854 16.7396 15.3698 17.987 14.5781 19.0234C13.7917 20.0547 12.8125 20.8464 11.6406 21.3984C10.4687 21.9453 9.18229 22.2187 7.78125 22.2187C6.22917 22.2187 4.91927 21.888 3.85156 21.2266C2.78385 20.5651 2.02083 19.6224 1.5625 18.3984C1.10938 17.1745 1.02083 15.7187 1.29688 14.0313C1.51563 12.7083 1.91146 11.5365 2.48438 10.5156C3.0625 9.49479 3.76823 8.63281 4.60156 7.92969C5.4349 7.22135 6.35417 6.6875 7.35938 6.32812C8.36458 5.96354 9.40625 5.78125 10.4844 5.78125C11.4271 5.78125 12.2839 5.91667 13.0547 6.1875C13.8255 6.45312 14.4844 6.83333 15.0313 7.32812C15.5781 7.81771 15.987 8.39844 16.2578 9.07031C16.5339 9.74219 16.6458 10.4792 16.5938 11.2812H12.2031ZM17.0254 22L19.6816 6H31.2129L30.6191 9.5H23.4316L22.9941 12.25H29.5879L28.9941 15.75H22.4004L21.9629 18.5H29.1191L28.5254 22H17.0254ZM30.7109 22L33.3672 6H40.2734C41.4609 6 42.4635 6.21615 43.2813 6.64844C44.099 7.08073 44.6875 7.70312 45.0469 8.51563C45.4063 9.32812 45.4922 10.3021 45.3047 11.4375C45.1172 12.5833 44.7031 13.5495 44.0625 14.3359C43.4271 15.1172 42.6172 15.7109 41.6328 16.1172C40.6536 16.5182 39.5547 16.7187 38.3359 16.7187H34.2109L34.7734 13.3438H38.0234C38.5339 13.3438 38.9818 13.2812 39.3672 13.1562C39.7526 13.026 40.0651 12.8229 40.3047 12.5469C40.5443 12.2656 40.7005 11.8958 40.7734 11.4375C40.8464 10.9792 40.8099 10.6068 40.6641 10.3203C40.5182 10.0286 40.276 9.8151 39.9375 9.67969C39.599 9.53906 39.1797 9.46875 38.6797 9.46875H37.1484L35.0547 22H30.7109ZM41.3047 14.6562L44.0859 22H39.3672L36.6797 14.6562H41.3047ZM49.7773 22H45.0898L53.0273 6H58.9648L61.5898 22H56.9023L55.3398 10.4063H55.2148L49.7773 22ZM49.9648 15.6875H58.7773L58.2148 18.9375H49.4023L49.9648 15.6875ZM63.1309 22L65.7871 6H70.1309L68.0684 18.5H74.5371L73.9434 22H63.1309ZM96.6602 12H92.3164C92.3477 11.6302 92.3268 11.2969 92.2539 11C92.181 10.7031 92.056 10.4479 91.8789 10.2344C91.7018 10.0156 91.4701 9.84896 91.1836 9.73437C90.8971 9.61979 90.556 9.5625 90.1602 9.5625C89.3997 9.5625 88.7201 9.7526 88.1211 10.1328C87.5221 10.5078 87.0247 11.0469 86.6289 11.75C86.2331 12.4479 85.9518 13.2812 85.7852 14.25C85.6393 15.1875 85.6341 15.9661 85.7695 16.5859C85.9102 17.2057 86.1836 17.6693 86.5898 17.9766C87.0013 18.2839 87.5352 18.4375 88.1914 18.4375C88.6289 18.4375 89.0299 18.3854 89.3945 18.2812C89.7643 18.1771 90.0924 18.0286 90.3789 17.8359C90.6706 17.638 90.918 17.4036 91.1211 17.1328C91.3294 16.8568 91.4883 16.5521 91.5977 16.2187H95.9727C95.806 16.8958 95.5091 17.5885 95.082 18.2969C94.6549 19 94.1029 19.6484 93.4258 20.2422C92.7487 20.8307 91.9518 21.3073 91.0352 21.6719C90.1185 22.0365 89.0872 22.2187 87.9414 22.2187C86.4414 22.2187 85.1471 21.8906 84.0586 21.2344C82.9753 20.5781 82.1888 19.6198 81.6992 18.3594C81.2148 17.099 81.1185 15.5625 81.4102 13.75C81.7018 12 82.2773 10.5339 83.1367 9.35156C83.9961 8.16927 85.0404 7.27865 86.2695 6.67969C87.4987 6.08073 88.806 5.78125 90.1914 5.78125C91.2383 5.78125 92.1758 5.91927 93.0039 6.19531C93.8372 6.47135 94.5378 6.875 95.1055 7.40625C95.6784 7.93229 96.1003 8.58073 96.3711 9.35156C96.6419 10.1224 96.7383 11.0052 96.6602 12ZM100.652 22H95.9648L103.902 6H109.84L112.465 22H107.777L106.215 10.4063H106.09L100.652 22ZM100.84 15.6875H109.652L109.09 18.9375H100.277L100.84 15.6875ZM114.006 22L116.662 6H123.568C124.756 6 125.758 6.21615 126.576 6.64844C127.394 7.08073 127.982 7.70312 128.342 8.51563C128.701 9.32812 128.787 10.3021 128.6 11.4375C128.412 12.5833 127.998 13.5495 127.357 14.3359C126.722 15.1172 125.912 15.7109 124.928 16.1172C123.949 16.5182 122.85 16.7187 121.631 16.7187H117.506L118.068 13.3438H121.318C121.829 13.3438 122.277 13.2812 122.662 13.1562C123.048 13.026 123.36 12.8229 123.6 12.5469C123.839 12.2656 123.995 11.8958 124.068 11.4375C124.141 10.9792 124.105 10.6068 123.959 10.3203C123.813 10.0286 123.571 9.8151 123.232 9.67969C122.894 9.53906 122.475 9.46875 121.975 9.46875H120.443L118.35 22H114.006ZM124.6 14.6562L127.381 22H122.662L119.975 14.6562H124.6Z" fill="#B70015"/>
</svg>
